# xmcd
#
# Track frame offsets:
#	150
#	13220
#	24400
#	36193
#	48560
#	58590
#	72693
#	84811
#	96696
#	109943
#	122259
#	135024
#	148984
#	160791
#	174306
#	186830
#	198972
#	210763
#	223684
#	234601
#	246476
#	258933
#	271621
#	284525
#	296978
#
# Disc length: 4143 seconds
#
# Revision: 1
# Processed by: cddbd v1.5.2PL0 Copyright (c) Steve Scherf et al.
# Submitted via: audiograbber 1.83.01
#
DISCID=75102d19
DTITLE=Various Artist - Th'is Country - Country Stars CD1
DYEAR=2011
DGENRE=Country
TTITLE0=Johnny Cash - Folsom Prison Blues
TTITLE1=Carl Smith - Don't Just Stand There
TTITLE2=Eddy Arnold - Kentucky Waltz
TTITLE3=Hank Snow w. Anita Carter - Bluebird Island
TTITLE4=Charline Arthur - Burn That Candle
TTITLE5=Bill Monroe - Blue Moon Of Kentucky
TTITLE6=Bill Nettles - Wine O'Boogie
TTITLE7=Bob Wills - San Antonio Rose
TTITLE8=Kitty Wells - How Far Is Heaven
TTITLE9=Faron Young - Just Out Of Reach
TTITLE10=Gene Autry - At Mail Call Today
TTITLE11=Pee Wee King - Slow Poke
TTITLE12=Hank Snow - One More Ride
TTITLE13=Roy Acuff - Tennessee Waltz
TTITLE14=Hank Thompson - The Wild Side Of Life (Honky Tonk Angel)
TTITLE15=Jim Reeves - Mexican Joe
TTITLE16=Eddy Arnold - Bouquet Of Roses
TTITLE17=Kitty Wells and Red Foley - You And Me
TTITLE18=Johnny Horton - Big Wheels Rollin
TTITLE19=Hank Snow - The Star Spangled Waltz
TTITLE20=Carl Smith - Kisses Don't Lie
TTITLE21=Tex Ritter - Gun Smoke
TTITLE22=Hank Snow - I'm Movin' On
TTITLE23=The Weawers - On Top Of Old Smoky
TTITLE24=Vaughn Monroe - Riders In The Sky
EXTD=
EXTT0=
EXTT1=
EXTT2=
EXTT3=
EXTT4=
EXTT5=
EXTT6=
EXTT7=
EXTT8=
EXTT9=
EXTT10=
EXTT11=
EXTT12=
EXTT13=
EXTT14=
EXTT15=
EXTT16=
EXTT17=
EXTT18=
EXTT19=
EXTT20=
EXTT21=
EXTT22=
EXTT23=
EXTT24=
PLAYORDER=
